<svg width="24" height="25" viewBox="0 0 24 25" fill="none" xmlns="http://www.w3.org/2000/svg">
<rect width="24" height="25" fill="#4E4E4E"/>
<g id="Desktop - 2">
<rect width="1440" height="1024" transform="translate(-55 -232)" fill="#CCCCCC"/>
<g id="left">
<g id="container" filter="url(#filter0_d_0_1)">
<rect x="-27" y="-50" width="366" height="794" rx="10" fill="#3939C2" shape-rendering="crispEdges"/>
<g id="upmenu">
<g id="Frame 1">
<mask id="path-2-inside-1_0_1" fill="white">
<path d="M-27 -26H339V52H-27V-26Z"/>
</mask>
<path d="M-27 -26H339V52H-27V-26Z" fill="#3939C2"/>
<path d="M-27 -26H339V52H-27V-26Z" fill="black" fill-opacity="0.2"/>
<path d="M339 50H-27V54H339V50Z" fill="white" mask="url(#path-2-inside-1_0_1)"/>
<g id="Group 1">
<g id="IONIcon/H/home/default">
<path id="Vector" d="M12.2607 5.24806C12.1909 5.1813 12.098 5.14404 12.0015 5.14404C11.9049 5.14404 11.812 5.1813 11.7422 5.24806L3.11255 13.492C3.0759 13.527 3.04674 13.5692 3.02684 13.6158C3.00694 13.6625 2.99671 13.7127 2.99677 13.7634L2.99536 21.5006C2.99536 21.8984 3.1534 22.2799 3.4347 22.5612C3.71601 22.8425 4.09754 23.0006 4.49536 23.0006H9.00005C9.19896 23.0006 9.38972 22.9215 9.53038 22.7809C9.67103 22.6402 9.75005 22.4495 9.75005 22.2506V15.8756C9.75005 15.7761 9.78956 15.6807 9.85988 15.6104C9.93021 15.5401 10.0256 15.5006 10.125 15.5006H13.875C13.9745 15.5006 14.0699 15.5401 14.1402 15.6104C14.2105 15.6807 14.25 15.7761 14.25 15.8756V22.2506C14.25 22.4495 14.3291 22.6402 14.4697 22.7809C14.6104 22.9215 14.8011 23.0006 15 23.0006H19.5029C19.9007 23.0006 20.2822 22.8425 20.5635 22.5612C20.8448 22.2799 21.0029 21.8984 21.0029 21.5006V13.7634C21.0029 13.7127 20.9927 13.6625 20.9728 13.6158C20.9529 13.5692 20.9237 13.527 20.8871 13.492L12.2607 5.24806Z" fill="white"/>
<path id="Vector_2" d="M23.0119 11.9459L19.5057 8.5915V3.50134C19.5057 3.30243 19.4266 3.11166 19.286 2.97101C19.1453 2.83036 18.9546 2.75134 18.7557 2.75134H16.5057C16.3067 2.75134 16.116 2.83036 15.9753 2.97101C15.8347 3.11166 15.7557 3.30243 15.7557 3.50134V5.00134L13.0407 2.40541C12.7866 2.14853 12.4088 2.00134 12.0005 2.00134C11.5936 2.00134 11.2168 2.14853 10.9627 2.40587L0.992381 11.9449C0.700819 12.2262 0.664256 12.6888 0.929568 12.9935C0.996192 13.0704 1.07777 13.133 1.16933 13.1774C1.2609 13.2217 1.36054 13.247 1.46218 13.2517C1.56383 13.2563 1.66536 13.2402 1.76059 13.2044C1.85582 13.1686 1.94277 13.1137 2.01613 13.0432L11.7427 3.74884C11.8125 3.68208 11.9053 3.64482 12.0019 3.64482C12.0985 3.64482 12.1913 3.68208 12.2611 3.74884L21.9886 13.0432C22.1319 13.1806 22.3238 13.2556 22.5223 13.2518C22.7208 13.2479 22.9097 13.1655 23.0475 13.0226C23.3353 12.7245 23.3114 12.2323 23.0119 11.9459Z" fill="white"/>
</g>
</g>
</g>
</g>
</g>
</g>
</g>
<defs>
<filter id="filter0_d_0_1" x="-51" y="-72" width="414" height="842" filterUnits="userSpaceOnUse" color-interpolation-filters="sRGB">
<feFlood flood-opacity="0" result="BackgroundImageFix"/>
<feColorMatrix in="SourceAlpha" type="matrix" values="0 0 0 0 0 0 0 0 0 0 0 0 0 0 0 0 0 0 127 0" result="hardAlpha"/>
<feOffset dy="2"/>
<feGaussianBlur stdDeviation="12"/>
<feComposite in2="hardAlpha" operator="out"/>
<feColorMatrix type="matrix" values="0 0 0 0 0 0 0 0 0 0 0 0 0 0 0 0 0 0 0.05 0"/>
<feBlend mode="normal" in2="BackgroundImageFix" result="effect1_dropShadow_0_1"/>
<feBlend mode="normal" in="SourceGraphic" in2="effect1_dropShadow_0_1" result="shape"/>
</filter>
</defs>
</svg>
