<svg width="30" height="31" viewBox="0 0 30 31" fill="none" xmlns="http://www.w3.org/2000/svg">
<g id="Icon Pegawai">
<g id="Pegawai">
<path id="Ellipse 1" d="M20.7101 9.20979C20.7101 12.6394 17.9299 15.4196 14.5003 15.4196C11.0707 15.4196 8.29053 12.6394 8.29053 9.20979C8.29053 5.78022 11.0707 3 14.5003 3C17.9299 3 20.7101 5.78022 20.7101 9.20979Z" fill="white" fill-opacity="0.75"/>
<path id="Subtract" fill-rule="evenodd" clip-rule="evenodd" d="M21.2136 15.2517C21.6771 15.2517 22.0528 15.6274 22.0528 16.0909V17.2937C22.5126 17.397 22.9427 17.579 23.3281 17.8247L24.1806 16.9723C24.5083 16.6445 25.0396 16.6445 25.3673 16.9723C25.695 17.3 25.695 17.8313 25.3673 18.159L24.5256 19.0008C24.7821 19.3877 24.9736 19.8215 25.0845 20.2867L26.2486 20.2867C26.712 20.2867 27.0877 20.6624 27.0877 21.1258C27.0877 21.5893 26.712 21.965 26.2486 21.965H25.126C25.0346 22.4562 24.8541 22.9162 24.6018 23.3273L25.3673 24.0928C25.695 24.4205 25.695 24.9518 25.3673 25.2795C25.0396 25.6072 24.5082 25.6072 24.1805 25.2795L23.4459 24.5449C23.031 24.8303 22.56 25.0399 22.0528 25.1539V26.1608C22.0528 26.6243 21.6771 27 21.2136 27C20.7501 27 20.3744 26.6243 20.3744 26.1608V25.174C19.8542 25.0703 19.37 24.8664 18.943 24.5833L18.2467 25.2795C17.919 25.6072 17.3877 25.6072 17.06 25.2795C16.7323 24.9518 16.7323 24.4205 17.06 24.0927L17.7669 23.3858C17.4955 22.96 17.3019 22.4797 17.2061 21.965H16.1786C15.7152 21.965 15.3395 21.5893 15.3395 21.1258C15.3395 20.6624 15.7152 20.2867 16.1786 20.2867H17.2477C17.364 19.7986 17.5691 19.345 17.845 18.9439L17.06 18.159C16.7323 17.8313 16.7323 17.2999 17.06 16.9722C17.3877 16.6445 17.9191 16.6445 18.2468 16.9722L19.0626 17.788C19.4596 17.5444 19.9021 17.3677 20.3744 17.2736V16.0909C20.3744 15.6274 20.7501 15.2517 21.2136 15.2517ZM21.1784 23.5585C22.4761 23.5585 23.5281 22.5066 23.5281 21.2089C23.5281 19.9112 22.4761 18.8592 21.1784 18.8592C19.8807 18.8592 18.8288 19.9112 18.8288 21.2089C18.8288 22.5066 19.8807 23.5585 21.1784 23.5585Z" fill="white" fill-opacity="0.75"/>
<path id="Subtract_2" fill-rule="evenodd" clip-rule="evenodd" d="M15.4757 25.9931C15.0253 25.2439 14.9958 24.3123 15.3872 23.5393C14.3724 23.2067 13.6395 22.2519 13.6395 21.1259C13.6395 19.9999 14.3724 19.0451 15.3873 18.7125C15.0026 17.9527 15.0245 17.04 15.4528 16.2976C15.0608 16.2705 14.6847 16.2588 14.3324 16.2588C10.2867 16.2588 5.46291 17.771 3.92652 19.9026C2.98781 20.8411 2.99547 22.6421 3.00085 23.9072C3.00124 23.9995 3.00162 24.0889 3.00162 24.1749C3.00162 25.5837 4.26251 25.9931 4.93384 25.9931H15.4757Z" fill="white" fill-opacity="0.75"/>
</g>
</g>
</svg>
