<svg width="24" height="24" viewBox="0 0 24 24" fill="none" xmlns="http://www.w3.org/2000/svg">
<g id="svg_ (1) 1">
<path id="Vector" d="M4.64867 3.89465C4.42736 3.83382 4.19356 3.83524 3.97301 3.89876C3.75245 3.96227 3.5537 4.08542 3.39864 4.25463C3.13957 4.53192 2.99743 4.89844 3.00181 5.2779V16.4346C3.00181 16.8315 3.21156 17.217 3.45817 17.4295C3.67191 17.609 3.92111 17.7413 4.18948 17.8179L11.3268 20.1053C11.5489 20.1652 11.7832 20.1624 12.0038 20.0974C12.2244 20.0323 12.4227 19.9076 12.5769 19.7369C12.8353 19.4603 12.9773 19.0949 12.9737 18.7164V7.56537C12.9694 7.37567 12.9265 7.18884 12.8476 7.0163C12.7686 6.84377 12.6553 6.68916 12.5145 6.56194C12.2986 6.38325 12.0475 6.25191 11.7775 6.17645L4.64867 3.89465Z" fill="white"/>
<path id="Vector_2" d="M4.2178 3.85497C4.11916 3.85534 4.02156 3.87513 3.93057 3.91323C3.83957 3.95132 3.75698 4.00696 3.68749 4.07698C3.618 4.14699 3.56298 4.23 3.52558 4.32128C3.48817 4.41256 3.46911 4.51031 3.46949 4.60895C3.47023 4.80719 3.54931 4.99709 3.68949 5.13727C3.82966 5.27744 4.01957 5.35652 4.2178 5.35727H14.493C14.5497 5.35727 14.5043 5.35727 14.5043 5.28924V16.086C14.5043 16.0151 14.5525 16.018 14.493 16.018H12.4805C12.2827 16.0194 12.0935 16.0989 11.954 16.2389C11.8144 16.379 11.7357 16.5685 11.735 16.7663C11.7346 16.8649 11.7537 16.9627 11.7911 17.0539C11.8285 17.1452 11.8835 17.2282 11.953 17.2982C12.0225 17.3683 12.1051 17.4239 12.1961 17.462C12.2871 17.5001 12.3847 17.5199 12.4833 17.5203H14.493C15.2753 17.5203 16.0038 16.9108 16.0038 16.086V5.28924C16.0038 4.46439 15.2753 3.85497 14.493 3.85497H4.2178ZM17.3105 7.49451C17.1212 7.51555 16.9469 7.60775 16.823 7.75245C16.6943 7.90405 16.631 8.10048 16.647 8.29866C16.6629 8.49685 16.7568 8.68064 16.908 8.80973L19.0991 10.689L16.9052 12.5655C16.7544 12.695 16.661 12.879 16.6456 13.0771C16.6302 13.2753 16.694 13.4715 16.823 13.6228C16.9525 13.7736 17.1365 13.8669 17.3346 13.8823C17.5328 13.8977 17.729 13.8339 17.8803 13.705L20.7375 11.2588C20.82 11.1883 20.8863 11.1007 20.9318 11.0021C20.9772 10.9035 21.0008 10.7962 21.0008 10.6876C21.0008 10.579 20.9772 10.4718 20.9318 10.3731C20.8863 10.2745 20.82 10.187 20.7375 10.1165L17.8803 7.67025C17.8023 7.60362 17.7116 7.55365 17.6136 7.52343C17.5156 7.4932 17.4124 7.48336 17.3105 7.49451Z" fill="white"/>
<path id="Vector_3" d="M13.9771 10.0172C13.878 10.0169 13.7798 10.0361 13.6882 10.0739C13.5965 10.1116 13.5132 10.1672 13.4432 10.2372C13.3731 10.3073 13.3175 10.3906 13.2798 10.4823C13.242 10.5739 13.2228 10.6721 13.2231 10.7712C13.2235 10.8699 13.2433 10.9675 13.2814 11.0585C13.3195 11.1495 13.3751 11.2321 13.4452 11.3016C13.5152 11.371 13.5982 11.4261 13.6895 11.4635C13.7807 11.5009 13.8785 11.5199 13.9771 11.5196H19.8304C20.0287 11.5188 20.2186 11.4397 20.3588 11.2995C20.4989 11.1594 20.578 10.9695 20.5788 10.7712C20.5791 10.6724 20.56 10.5744 20.5224 10.4829C20.4848 10.3914 20.4296 10.3083 20.3598 10.2383C20.29 10.1682 20.207 10.1126 20.1157 10.0747C20.0244 10.0368 19.9265 10.0172 19.8276 10.0172H13.9771Z" fill="white"/>
</g>
</svg>
